<?xml version="1.0" encoding="UTF-8" standalone="no"?>
<!-- Created with Inkscape (http://www.inkscape.org/) by Marsupilami -->
<svg
   xmlns:svg="http://www.w3.org/2000/svg"
   xmlns="http://www.w3.org/2000/svg"
   version="1.0"
   width="1017"
   height="768"
   viewBox="0 0 24.3225 18.36125"
   id="svg2726">
  <defs
     id="defs2728" />
  <g
     transform="translate(-362.83875,-523.18156)"
     id="layer1">
    <path
       d="M 363.06375,541.31781 L 363.06375,523.40656 L 386.935,523.40656 L 386.935,541.31781 L 363.06375,541.31781 z"
       id="path2498"
       style="fill:#f9f400;fill-opacity:1;fill-rule:nonzero;stroke:none" />
    <path
       d="M 0,0 L 0,18.375 L 24.3125,18.375 L 24.3125,0 L 0,0 z M 0.4375,0.4375 L 23.875,0.4375 L 23.875,17.90625 L 0.4375,17.90625 L 0.4375,0.4375 z M 2.15625,2.46875 L 2.15625,15.875 L 13.1875,15.875 L 13.1875,13.46875 L 4.84375,13.46875 L 4.84375,2.46875 L 2.15625,2.46875 z M 6.15625,2.46875 L 6.15625,9.375 C 6.15625,10.82125 7.77875,11.9375 8.90625,11.9375 L 10.34375,11.9375 C 11.47125,11.9375 13.0625,10.82125 13.0625,9.375 L 13.0625,9.0625 L 13.0625,2.46875 L 10.375,2.46875 L 10.375,9.0625 C 10.375,9.3237501 10.16875,9.4375 10,9.4375 C 9.83,9.4375004 9.25,9.4375 9.25,9.4375 C 9.0525003,9.4375004 8.84125,9.31625 8.84375,9.0625 L 8.84375,2.46875 L 6.15625,2.46875 z M 14.625,2.46875 L 14.625,15.875 L 17.3125,15.875 L 17.3125,10.59375 L 19.84375,15.875 L 22.84375,15.875 L 19.625,9.125 L 22.4375,2.46875 L 19.4375,2.46875 L 17.3125,7.46875 L 17.3125,2.46875 L 14.625,2.46875 z"
       transform="translate(362.83875,523.18156)"
       id="path2500"
       style="fill:#000000;fill-opacity:1;fill-rule:nonzero;stroke:none" />
  </g>
</svg>
